<svg width="730" height="409" viewBox="0 0 730 409" fill="none" xmlns="http://www.w3.org/2000/svg">
<path d="M513.468 208.676C506.358 195.636 475.098 205.866 475.098 205.866C475.098 205.866 440.428 88.5358 401.618 96.5358C362.808 104.536 361.618 152.836 361.618 152.836C361.618 152.836 320.428 366.166 361.618 352.246C361.618 352.246 374.358 359.056 391.248 298.616L490.508 242.916C490.508 242.896 520.588 221.706 513.468 208.676ZM400.438 238.156L409.328 193.566L423.258 225.416L400.438 238.156Z" fill="white"/>
<path d="M446.958 274.005L492.888 247.335C492.888 247.335 573.778 414.445 530.218 408.525C486.658 402.595 446.958 274.005 446.958 274.005Z" fill="white"/>
<path d="M727.048 172.615C707.398 55.1049 447.048 29.2949 447.048 29.2949C447.048 29.2949 422.458 36.3449 430.578 58.9849C438.308 80.5349 441.578 105.145 497.598 127.105C497.598 127.105 497.608 127.105 497.638 127.115C499.018 127.455 539.098 137.345 558.908 137.605C659.298 160.005 662.038 188.045 662.038 188.045C664.848 242.105 599.828 307.485 599.828 307.485L560.588 144.565L507.598 135.425C514.278 168.095 552.348 350.325 570.948 348.945C570.948 348.945 577.958 360.525 598.138 357.245C618.328 353.955 746.698 290.135 727.048 172.615Z" fill="white"/>
<path d="M1.20788 373.856C1.20788 373.856 10.5379 397.856 85.6479 252.526C85.6479 252.526 100.318 323.636 150.538 336.966C150.538 336.966 181.648 355.186 242.978 227.636C242.978 227.636 244.578 380.076 289.198 402.306C289.198 402.306 337.168 441.716 329.168 107.496L329.908 95.0558C329.908 95.0558 337.348 56.5358 334.378 28.0958C331.418 -0.344193 308.308 0.245801 308.308 0.245801C308.308 0.245801 265.938 -15.4542 156.308 204.096C156.308 204.096 141.638 101.206 106.528 110.536C106.528 110.536 62.5279 102.316 26.0879 234.316C26.0979 234.306 -6.61212 360.386 1.20788 373.856Z" fill="white"/>
</svg>
